<svg xmlns="http://www.w3.org/2000/svg" viewBox="0 0 429.65 439.04"><defs><style>.cls-1{fill:#a7b6de;}</style></defs><g id="di_logo_gray"><g id="di_box"><path class="cls-1" d="M214.83,16.42,11.72,219.52,214.83,422.63l203.1-203.11Zm-.31,367.92L49.7,219.52,214.52,54.7,379.34,219.52Z"/></g><g id="di_stroke"><path class="cls-1" d="M221.46,280.54h-15V264.66h-.37q-10.4,18.07-32.11,18.07-17.61,0-28.15-12.55T135.34,236q0-23.18,11.67-37.14t31.11-13.95q19.26,0,28,15.14h.37V142.23h15Zm-15-42.24V224.52A26.76,26.76,0,0,0,199,205.36q-7.49-7.85-19-7.84-13.68,0-21.53,10t-7.85,27.74q0,16.14,7.53,25.5t20.21,9.35q12.49,0,20.3-9T206.5,238.3Z"/><path class="cls-1" d="M259.41,163.39a9.5,9.5,0,0,1-6.84-2.73,9.28,9.28,0,0,1-2.83-6.94,9.58,9.58,0,0,1,9.67-9.76,9.67,9.67,0,0,1,7,2.78,9.74,9.74,0,0,1,0,13.83A9.58,9.58,0,0,1,259.41,163.39Zm7.3,117.15h-15V187.11h15Z"/></g></g></svg>