<svg xmlns="http://www.w3.org/2000/svg" viewBox="0 0 1920 1080"><g id="city7"><polygon class="cls-1" points="1789.07 885.64 1477.09 885.64 1477.09 1046.97 1789.07 1046.97 1789.07 885.64 1789.07 885.64"/><polygon class="cls-1" points="1789.68 891.31 1787.97 891.31 1787.97 892.61 1789.68 892.61 1789.68 891.31 1789.68 891.31"/><polygon class="cls-1" points="1791.05 919.29 1786.28 919.29 1786.28 920.02 1791.05 920.02 1791.05 919.29 1791.05 919.29"/><polygon class="cls-1" points="1790.56 919.78 1788.05 919.78 1788.05 922.78 1790.56 920.18 1790.56 919.78 1790.56 919.78"/><polygon class="cls-1" points="1791.05 1017.14 1786.28 1017.14 1786.28 1017.87 1791.05 1017.87 1791.05 1017.14 1791.05 1017.14"/><polygon class="cls-1" points="1790.56 1017.63 1788.05 1017.63 1788.05 1020.63 1790.56 1018.04 1790.56 1017.63 1790.56 1017.63"/><polygon class="cls-1" points="1797.18 881.61 1660.54 881.61 1660.54 883.07 1797.18 883.07 1797.18 881.61 1797.18 881.61"/><polygon class="cls-1" points="1790.63 880.16 1666.08 880.16 1666.08 882.48 1793.4 882.48 1790.63 880.16 1790.63 880.16"/><polygon class="cls-1" points="1794.85 882.48 1782.47 882.48 1782.47 888.46 1794.85 883.51 1794.85 882.48 1794.85 882.48"/><polygon class="cls-1" points="1790.73 884.61 1788.09 884.61 1788.09 886.61 1790.08 886.61 1790.73 884.61 1790.73 884.61"/><polygon class="cls-1" points="1784.37 882.48 1660.32 882.48 1660.32 903.02 1784.37 903.02 1784.37 882.48 1784.37 882.48"/><polygon class="cls-1" points="1477.09 868.44 1493.4 868.44 1493.4 895.55 1477.09 895.55 1477.09 868.44 1477.09 868.44"/><polygon class="cls-1" points="1477.09 863.96 1479.05 863.96 1479.05 869.84 1477.09 869.84 1477.09 863.96 1477.09 863.96"/><polygon class="cls-1" points="1483.03 864.03 1487.46 864.03 1487.46 870.57 1483.03 870.57 1483.03 864.03 1483.03 864.03"/><polygon class="cls-1" points="1491.44 863.96 1493.4 863.96 1493.4 869.84 1491.44 869.84 1491.44 863.96 1491.44 863.96"/><polygon class="cls-1" points="1483.12 862.29 1487.37 862.29 1487.37 863.01 1483.12 863.01 1483.12 862.29 1483.12 862.29"/><polygon class="cls-1" points="1476.44 863.6 1477.37 862.95 1493.12 862.95 1494.05 863.6 1494.05 864.32 1476.44 864.32 1476.44 863.6 1476.44 863.6"/><polygon class="cls-1" points="1492.78 872.86 1563.12 872.86 1563.12 894.11 1492.78 894.11 1492.78 872.86 1492.78 872.86"/><polygon class="cls-1" points="1561.9 873.89 1565.28 873.89 1565.28 890.16 1561.9 890.16 1561.9 873.89 1561.9 873.89"/><polygon class="cls-1" points="1677.87 864.9 1569.03 864.9 1569.03 891.03 1677.87 891.03 1677.87 864.9 1677.87 864.9"/><path class="cls-1" d="M1676.67,869.14h3a.22.22,0,0,1,.22.21v14.32a.21.21,0,0,1-.22.21h-3a.21.21,0,0,1-.21-.21V869.35a.22.22,0,0,1,.21-.21Z"/><polygon class="cls-1" points="1680.44 871.77 1679.05 871.77 1679.05 873.09 1680.44 873.09 1680.44 871.77 1680.44 871.77"/><path class="cls-1" d="M1570.22,869.14h-3a.21.21,0,0,0-.21.21V888a.21.21,0,0,0,.21.21h3a.22.22,0,0,0,.21-.21V869.35a.22.22,0,0,0-.21-.21Z"/><polygon class="cls-1" points="1566.45 871.77 1567.85 871.77 1567.85 873.09 1566.45 873.09 1566.45 871.77 1566.45 871.77"/><path class="cls-1" d="M1570.27,862.07h2.34a.68.68,0,0,1,.67.67v3.82a.68.68,0,0,1-.67.67h-2.34a.68.68,0,0,1-.67-.67v-3.82a.67.67,0,0,1,.67-.67Z"/><path class="cls-1" d="M1579.5,862.07h2.34a.67.67,0,0,1,.67.67v3.82a.68.68,0,0,1-.67.67h-2.34a.68.68,0,0,1-.67-.67v-3.82a.67.67,0,0,1,.67-.67Z"/><polygon class="cls-1" points="1571.57 863.15 1580.53 863.15 1580.53 867.16 1571.57 867.16 1571.57 863.15 1571.57 863.15"/><path class="cls-1" d="M1664.73,862.07h2.33a.67.67,0,0,1,.67.67v3.82a.68.68,0,0,1-.67.67h-2.33a.68.68,0,0,1-.67-.67v-3.82a.67.67,0,0,1,.67-.67Z"/><path class="cls-1" d="M1674,862.07h2.34a.67.67,0,0,1,.67.67v3.82a.68.68,0,0,1-.67.67H1674a.68.68,0,0,1-.67-.67v-3.82a.67.67,0,0,1,.67-.67Z"/><polygon class="cls-1" points="1666.03 863.15 1674.99 863.15 1674.99 867.16 1666.03 867.16 1666.03 863.15 1666.03 863.15"/><polygon class="cls-1" points="1613.2 821.58 1630.44 821.58 1630.44 831.04 1580.96 831.04 1613.2 821.58 1613.2 821.58"/><polygon class="cls-1" points="1577.73 830.92 1626.75 830.92 1626.75 833.35 1577.73 833.35 1577.73 830.92 1577.73 830.92"/><polygon class="cls-1" points="1579.2 832.77 1586.91 832.77 1586.91 834.15 1579.2 834.15 1579.2 832.77 1579.2 832.77"/><polygon class="cls-1" points="1580.5 833.84 1582.3 833.84 1582.3 836.85 1580.5 834.62 1580.5 833.84 1580.5 833.84"/><polygon class="cls-1" points="1633.6 821.58 1616.37 821.58 1616.37 831.04 1665.85 831.04 1633.6 821.58 1633.6 821.58"/><polygon class="cls-1" points="1669.07 830.92 1620.06 830.92 1620.06 833.35 1669.07 833.35 1669.07 830.92 1669.07 830.92"/><polygon class="cls-1" points="1667.6 832.77 1659.89 832.77 1659.89 834.15 1667.6 834.15 1667.6 832.77 1667.6 832.77"/><polygon class="cls-1" points="1666.3 833.84 1664.5 833.84 1664.5 836.85 1666.3 834.62 1666.3 833.84 1666.3 833.84"/><path class="cls-1" d="M1581.82,832.08H1665v42.56h-83.16V832.08Zm40.25,6.92h0a4.8,4.8,0,0,1,4.79,4.78v1.62h-.69v1.27h.69v15.67h-9.57V846.67h.69V845.4h-.69v-1.62a4.8,4.8,0,0,1,4.78-4.78Zm-13,0h0a4.79,4.79,0,0,1,4.78,4.78v1.62h-.69v1.27h.69v15.67h-9.57V846.67h.7V845.4h-.7v-1.62A4.8,4.8,0,0,1,1609,839Zm-13,0h0a4.8,4.8,0,0,1,4.79,4.78v1.62h-.7v1.27h.7v15.67h-9.57V846.67h.69V845.4h-.69v-1.62A4.79,4.79,0,0,1,1596,839Zm54.78,0h0a4.79,4.79,0,0,1,4.79,4.78v1.62h-.69v1.27h.69v15.67H1646V846.67h.69V845.4H1646v-1.62a4.79,4.79,0,0,1,4.78-4.78Z"/><polygon class="cls-1" points="79.04 808.41 244.35 808.41 244.35 1061.85 79.04 1061.85 79.04 808.41 79.04 808.41"/><polygon class="cls-1" points="81.24 798.68 242.15 798.68 242.15 822.09 81.24 822.09 81.24 798.68 81.24 798.68"/><polygon class="cls-1" points="79.76 799.36 243.63 799.36 243.63 794.81 208.64 762.76 114.75 762.76 79.76 794.81 79.76 799.36 79.76 799.36"/><polygon class="cls-1" points="117.25 682.81 115.72 682.81 114.52 767.59 118.62 767.59 117.25 682.81 117.25 682.81"/><polygon class="cls-1" points="206.28 682.81 207.81 682.81 209 767.59 204.91 767.59 206.28 682.81 206.28 682.81"/><polygon class="cls-1" points="117 749.65 206.53 749.65 206.53 764.04 117 764.04 117 749.65 117 749.65"/><path class="cls-1" d="M118,746.79h2.85a.36.36,0,0,1,.33.39v2.69a.36.36,0,0,1-.33.39H118a.37.37,0,0,1-.34-.39v-2.69a.36.36,0,0,1,.34-.39Z"/><path class="cls-1" d="M125.07,746.79h2.85a.36.36,0,0,1,.34.39v2.69a.37.37,0,0,1-.34.39h-2.85a.37.37,0,0,1-.34-.39v-2.69a.36.36,0,0,1,.34-.39Z"/><path class="cls-1" d="M132.12,746.79H135a.36.36,0,0,1,.33.39v2.69a.37.37,0,0,1-.33.39h-2.86a.38.38,0,0,1-.34-.39v-2.69a.37.37,0,0,1,.34-.39Z"/><path class="cls-1" d="M139.18,746.79H142a.37.37,0,0,1,.34.39v2.69a.38.38,0,0,1-.34.39h-2.85a.37.37,0,0,1-.34-.39v-2.69a.36.36,0,0,1,.34-.39Z"/><path class="cls-1" d="M146.23,746.79h2.85a.36.36,0,0,1,.34.39v2.69a.37.37,0,0,1-.34.39h-2.85a.37.37,0,0,1-.34-.39v-2.69a.36.36,0,0,1,.34-.39Z"/><path class="cls-1" d="M153.28,746.79h2.86a.36.36,0,0,1,.33.39v2.69a.37.37,0,0,1-.33.39h-2.86a.38.38,0,0,1-.34-.39v-2.69a.37.37,0,0,1,.34-.39Z"/><path class="cls-1" d="M160.33,746.79h2.86a.37.37,0,0,1,.34.39v2.69a.38.38,0,0,1-.34.39h-2.86a.37.37,0,0,1-.33-.39v-2.69a.36.36,0,0,1,.33-.39Z"/><path class="cls-1" d="M167.39,746.79h2.85a.36.36,0,0,1,.34.39v2.69a.37.37,0,0,1-.34.39h-2.85a.37.37,0,0,1-.34-.39v-2.69a.36.36,0,0,1,.34-.39Z"/><path class="cls-1" d="M174.44,746.79h2.86a.36.36,0,0,1,.33.39v2.69a.37.37,0,0,1-.33.39h-2.86a.37.37,0,0,1-.33-.39v-2.69a.36.36,0,0,1,.33-.39Z"/><path class="cls-1" d="M181.5,746.79h2.85a.37.37,0,0,1,.34.39v2.69a.38.38,0,0,1-.34.39H181.5a.37.37,0,0,1-.34-.39v-2.69a.36.36,0,0,1,.34-.39Z"/><path class="cls-1" d="M188.55,746.79h2.85a.36.36,0,0,1,.34.39v2.69a.37.37,0,0,1-.34.39h-2.85a.37.37,0,0,1-.34-.39v-2.69a.36.36,0,0,1,.34-.39Z"/><path class="cls-1" d="M195.6,746.79h2.86a.36.36,0,0,1,.33.39v2.69a.36.36,0,0,1-.33.39H195.6a.37.37,0,0,1-.34-.39v-2.69a.36.36,0,0,1,.34-.39Z"/><path class="cls-1" d="M202.66,746.79h2.85a.36.36,0,0,1,.34.39v2.69a.37.37,0,0,1-.34.39h-2.85a.37.37,0,0,1-.34-.39v-2.69a.36.36,0,0,1,.34-.39Z"/><path class="cls-1" d="M394.74,950.82a189.42,189.42,0,0,1,45.46,0v84.34H394.74V950.82Z"/><path class="cls-1" d="M314.28,950.82a189.42,189.42,0,0,1,45.46,0v84.34H314.28V950.82Z"/><polygon class="cls-1" points="463.74 968.18 434.12 963.68 434.12 978.86 463.74 974.52 463.74 968.18 463.74 968.18"/><polygon class="cls-1" points="463.74 984.45 434.12 979.95 434.12 995.12 463.74 990.79 463.74 984.45 463.74 984.45"/><polygon class="cls-1" points="463.74 1000.72 434.12 996.21 434.12 1011.39 463.74 1007.05 463.74 1000.72 463.74 1000.72"/><polygon class="cls-1" points="463.74 1016.98 434.12 1012.47 434.12 1027.65 463.74 1023.31 463.74 1016.98 463.74 1016.98"/><polygon class="cls-1" points="287.31 956.37 316.92 957.4 316.92 972.58 287.31 962.71 287.31 956.37 287.31 956.37"/><polygon class="cls-1" points="287.31 972.64 316.92 973.67 316.92 988.84 287.31 978.98 287.31 972.64 287.31 972.64"/><polygon class="cls-1" points="287.31 988.91 316.92 989.94 316.92 1005.11 287.31 995.25 287.31 988.91 287.31 988.91"/><polygon class="cls-1" points="287.31 1005.18 316.92 1006.21 316.92 1021.38 287.31 1011.51 287.31 1005.18 287.31 1005.18"/><polygon class="cls-1" points="287.31 1021.44 316.92 1022.47 316.92 1037.65 287.31 1027.78 287.31 1021.44 287.31 1021.44"/><polygon class="cls-1" points="292.63 960.93 324.52 960.93 324.52 1027.98 292.63 1027.98 292.63 960.93 292.63 960.93"/><polygon class="cls-1" points="351.8 958.42 401.94 963.89 401.94 1034.89 351.8 1034.89 351.8 958.42 351.8 958.42"/><polygon class="cls-1" points="291.36 1024.51 443.17 1024.51 443.17 1046.9 291.36 1046.9 291.36 1024.51 291.36 1024.51"/><path class="cls-1" d="M1198.09,837.18a2.42,2.42,0,1,1-2.42,2.42,2.42,2.42,0,0,1,2.42-2.42Z"/><path class="cls-1" d="M1198.54,821s.88-1.52.25-2.37-2.41-.51-2.07.89.51,1.23.42,1.61-1.18.25-1.85,1.31-1,2.62-1.69,3.55-1.52,1.61-1.19,2.49,1.19.21,1.27-.8a2.69,2.69,0,0,1,1.18-2.11c.85-.81,1.27-2.12,1.4-1.23a15,15,0,0,1,.08,4.35,8.26,8.26,0,0,0-.08,4.06,9.72,9.72,0,0,0,1,2.33,21.2,21.2,0,0,0,3.21.12,4.15,4.15,0,0,0-.3-2.37c-.55-1.51-.34-4-.3-5.45s-.16-3.76.39-3.72,2.65.89,3.12,2.07,1.73.77,1.43-.16-1.73-1.61-2.48-2.5a7.85,7.85,0,0,0-2.46-1.61,3.32,3.32,0,0,0-1.34-.46Z"/><polygon class="cls-1" points="1197.34 834.06 1198.83 834.06 1198.83 838.41 1197.34 838.41 1197.34 834.06 1197.34 834.06"/><polygon class="cls-1" points="1198.09 840.37 1200.97 841.48 1203.85 842.59 1203.85 844.81 1203.85 847.02 1200.97 848.13 1198.09 849.24 1195.2 848.13 1192.33 847.02 1192.33 844.81 1192.33 842.59 1195.2 841.48 1198.09 840.37 1198.09 840.37"/><polygon class="cls-1" points="1192.69 846 1203.5 846 1203.5 855.96 1192.69 855.96 1192.69 846 1192.69 846"/><polygon class="cls-1" points="1191.89 843.09 1204.28 843.09 1204.28 844.3 1191.89 844.3 1191.89 843.09 1191.89 843.09"/><polygon class="cls-1" points="1191.89 846.64 1204.28 846.64 1204.28 847.84 1191.89 847.84 1191.89 846.64 1191.89 846.64"/><polygon class="cls-1" points="1191.51 853.01 1204.67 853.01 1204.67 854.22 1191.51 854.22 1191.51 853.01 1191.51 853.01"/><polygon class="cls-1" points="1191.94 853.69 1204.25 853.69 1204.25 895.57 1191.94 895.57 1191.94 853.69 1191.94 853.69"/><polygon class="cls-1" points="1205.07 879.86 1191.12 879.86 1191.12 888.13 1205.07 888.13 1205.07 879.86 1205.07 879.86"/><polygon class="cls-1" points="1206.56 886.01 1189.63 886.01 1189.63 894.28 1206.56 894.28 1206.56 886.01 1206.56 886.01"/><polygon class="cls-1" points="1186.46 891.57 1209.74 891.57 1209.74 897.58 1186.46 897.58 1186.46 891.57 1186.46 891.57"/><polygon class="cls-1" points="1185.86 893.95 1210.33 893.95 1210.33 899.97 1185.86 899.97 1185.86 893.95 1185.86 893.95"/><polygon class="cls-1" points="1210.76 894.41 1185.43 894.41 1185.43 895.4 1210.76 895.4 1210.76 894.41 1210.76 894.41"/><polygon class="cls-1" points="1306.57 898.83 1089.62 898.83 1089.62 901.1 1306.57 901.1 1306.57 898.83 1306.57 898.83"/><polygon class="cls-1" points="1306.05 900.27 1302.31 900.27 1302.31 903.41 1306.05 903.41 1306.05 900.27 1306.05 900.27"/><polygon class="cls-1" points="1305.38 902.81 1301.79 902.81 1301.79 905.52 1305.38 905.52 1305.38 902.81 1305.38 902.81"/><polygon class="cls-1" points="1305.02 905.1 1302.64 905.1 1302.64 907.67 1305.02 906.12 1305.02 905.1 1305.02 905.1"/><polygon class="cls-1" points="1304.21 906 1301.25 906 1301.25 913.64 1304.21 913.64 1304.21 906 1304.21 906"/><polygon class="cls-1" points="1306.76 913.31 1299.02 913.31 1299.02 917.82 1306.76 917.82 1306.76 913.31 1306.76 913.31"/><polygon class="cls-1" points="1308.68 916.34 1304.85 916.34 1304.85 921.59 1308.68 918.55 1308.68 916.34 1308.68 916.34"/><polygon class="cls-1" points="1307.58 916.93 1298.58 916.93 1298.58 936.52 1307.58 936.52 1307.58 916.93 1307.58 916.93"/><polygon class="cls-1" points="1309.57 930.38 1306.03 930.38 1306.03 933.12 1309.57 933.12 1309.57 930.38 1309.57 930.38"/><polygon class="cls-1" points="1301.45 932.16 1434 932.16 1434 1057.46 1301.45 1057.46 1301.45 932.16 1301.45 932.16"/><polygon class="cls-1" points="1432.49 1031.37 1439.46 1033.85 1439.46 1057.46 1432.49 1057.46 1432.49 1031.37 1432.49 1031.37"/><polygon class="cls-1" points="1436.31 1045.98 1441.71 1048.47 1441.71 1057.46 1436.31 1057.46 1436.31 1045.98 1436.31 1045.98"/><polygon class="cls-1" points="1397.93 930.58 1424.34 930.58 1424.34 936.56 1397.93 936.56 1397.93 930.58 1397.93 930.58"/><polygon class="cls-1" points="1398.78 927.95 1422.07 927.95 1422.07 932.73 1398.78 932.73 1398.78 927.95 1398.78 927.95"/><polygon class="cls-1" points="1422.55 928.67 1420.39 928.67 1420.39 929.5 1422.55 929.5 1422.55 928.67 1422.55 928.67"/><polygon class="cls-1" points="1435.97 936.31 1432.46 936.31 1432.46 938.33 1435.97 938.33 1435.97 936.31 1435.97 936.31"/><polygon class="cls-1" points="1435.46 937.85 1432.78 937.85 1432.78 941 1435.46 938.6 1435.46 937.85 1435.46 937.85"/><polygon class="cls-1" points="1431.95 949.49 1440.61 949.49 1440.61 953.67 1431.95 953.67 1431.95 949.49 1431.95 949.49"/><polygon class="cls-1" points="1440.1 953.24 1431.4 953.24 1431.4 954.89 1440.1 954.89 1440.1 953.24 1440.1 953.24"/><polygon class="cls-1" points="1440.3 954.62 1431.56 954.62 1431.56 955.21 1440.3 955.21 1440.3 954.62 1440.3 954.62"/><polygon class="cls-1" points="1439.59 954.97 1431.99 954.97 1431.99 957.89 1439.59 955.76 1439.59 954.97 1439.59 954.97"/><polygon class="cls-1" points="1431.99 931.81 1434.51 931.81 1434.51 934.46 1431.99 934.46 1431.99 931.81 1431.99 931.81"/><polygon class="cls-1" points="1436.47 956.25 1416.9 956.25 1416.9 1057.46 1436.47 1057.46 1436.47 956.25 1436.47 956.25"/><polygon class="cls-1" points="1090.15 900.27 1093.89 900.27 1093.89 903.41 1090.15 903.41 1090.15 900.27 1090.15 900.27"/><polygon class="cls-1" points="1090.81 902.81 1094.4 902.81 1094.4 905.52 1090.81 905.52 1090.81 902.81 1090.81 902.81"/><polygon class="cls-1" points="1091.17 905.1 1093.56 905.1 1093.56 907.67 1091.17 906.12 1091.17 905.1 1091.17 905.1"/><polygon class="cls-1" points="1091.98 906 1094.94 906 1094.94 913.64 1091.98 913.64 1091.98 906 1091.98 906"/><polygon class="cls-1" points="1089.43 913.31 1097.18 913.31 1097.18 917.82 1089.43 917.82 1089.43 913.31 1089.43 913.31"/><polygon class="cls-1" points="1087.51 916.34 1091.34 916.34 1091.34 921.59 1087.51 918.55 1087.51 916.34 1087.51 916.34"/><polygon class="cls-1" points="1088.61 916.93 1097.62 916.93 1097.62 936.52 1088.61 936.52 1088.61 916.93 1088.61 916.93"/><polygon class="cls-1" points="1086.62 930.38 1090.17 930.38 1090.17 933.12 1086.62 933.12 1086.62 930.38 1086.62 930.38"/><polygon class="cls-1" points="1093.78 932.16 962.2 932.16 962.2 1057.46 1093.78 1057.46 1093.78 932.16 1093.78 932.16"/><polygon class="cls-1" points="963.7 1031.37 956.73 1033.85 956.73 1057.46 963.7 1057.46 963.7 1031.37 963.7 1031.37"/><polygon class="cls-1" points="959.88 1045.98 954.48 1048.47 954.48 1057.46 959.88 1057.46 959.88 1045.98 959.88 1045.98"/><polygon class="cls-1" points="998.26 930.58 971.85 930.58 971.85 936.56 998.26 936.56 998.26 930.58 998.26 930.58"/><polygon class="cls-1" points="997.42 927.95 974.12 927.95 974.12 932.73 997.42 932.73 997.42 927.95 997.42 927.95"/><polygon class="cls-1" points="973.65 928.67 975.8 928.67 975.8 929.5 973.65 929.5 973.65 928.67 973.65 928.67"/><polygon class="cls-1" points="960.23 936.31 963.73 936.31 963.73 938.33 960.23 938.33 960.23 936.31 960.23 936.31"/><polygon class="cls-1" points="960.74 937.85 963.42 937.85 963.42 941 960.74 938.6 960.74 937.85 960.74 937.85"/><polygon class="cls-1" points="964.24 949.49 955.58 949.49 955.58 953.67 964.24 953.67 964.24 949.49 964.24 949.49"/><polygon class="cls-1" points="956.09 953.24 964.79 953.24 964.79 954.89 956.09 954.89 956.09 953.24 956.09 953.24"/><polygon class="cls-1" points="955.89 954.62 964.64 954.62 964.64 955.21 955.89 955.21 955.89 954.62 955.89 954.62"/><polygon class="cls-1" points="956.6 954.97 964.2 954.97 964.2 957.89 956.6 955.76 956.6 954.97 956.6 954.97"/><polygon class="cls-1" points="964.2 931.81 961.68 931.81 961.68 934.46 964.2 934.46 964.2 931.81 964.2 931.81"/><polygon class="cls-1" points="959.72 956.25 979.29 956.25 979.29 1057.46 959.72 1057.46 959.72 956.25 959.72 956.25"/><polygon class="cls-1" points="1091.96 899.98 1304.23 899.98 1304.23 1057.46 1091.96 1057.46 1091.96 899.98 1091.96 899.98"/><polygon class="cls-1" points="480.7 978.82 544.16 978.82 544.16 1051.5 480.7 1051.5 480.7 978.82 480.7 978.82"/><polygon class="cls-1" points="475.44 1048.46 486.11 1048.46 486.11 1051.5 475.44 1051.5 475.44 1048.46 475.44 1048.46"/><polygon class="cls-1" points="481.17 974.9 523.26 974.9 523.26 983.09 481.17 983.09 481.17 974.9 481.17 974.9"/><polygon class="cls-1" points="520.51 967.16 510.26 973.8 510.26 977.06 520.51 977.06 520.51 967.16 520.51 967.16"/><polygon class="cls-1" points="479.57 977.88 482.26 977.88 482.26 980.38 479.57 978.97 479.57 977.88 479.57 977.88"/><polygon class="cls-1" points="479.81 988.32 481.97 988.32 481.97 990.72 479.81 989.05 479.81 988.32 479.81 988.32"/><polygon class="cls-1" points="479.81 1036.08 481.97 1036.08 481.97 1038.46 479.81 1036.83 479.81 1036.08 479.81 1036.08"/><polygon class="cls-1" points="518.98 952.64 541.62 944.02 541.62 983.61 518.98 983.61 518.98 952.64 518.98 952.64"/><polygon class="cls-1" points="530.66 946.63 538.16 946.63 538.16 949.65 530.66 949.65 530.66 946.63 530.66 946.63"/><polygon class="cls-1" points="516.11 952.12 522.25 952.12 522.25 952.97 516.11 952.97 516.11 952.12 516.11 952.12"/><polygon class="cls-1" points="516.88 952.59 520.38 952.59 520.38 957.97 516.88 955.13 516.88 952.59 516.88 952.59"/><polygon class="cls-1" points="540.74 924.47 585.31 924.47 585.31 952.43 540.74 952.43 540.74 924.47 540.74 924.47"/><polygon class="cls-1" points="540.07 926.26 541.91 926.26 541.91 929.82 540.07 927.66 540.07 926.26 540.07 926.26"/><polygon class="cls-1" points="539.54 923.88 553.69 923.88 553.69 926.71 539.54 926.71 539.54 923.88 539.54 923.88"/><polygon class="cls-1" points="551.75 918.85 566.57 918.85 566.57 928.11 551.75 928.11 551.75 918.85 551.75 918.85"/><polygon class="cls-1" points="565.98 914.24 584.7 914.24 584.7 928.86 565.98 928.86 565.98 914.24 565.98 914.24"/><polygon class="cls-1" points="579.55 908.87 588.7 903.19 588.7 910.66 579.55 910.66 579.55 908.87 579.55 908.87"/><polygon class="cls-1" points="579.99 910.18 582.84 910.18 582.84 911.66 579.99 911.66 579.99 910.18 579.99 910.18"/><polygon class="cls-1" points="582.25 909.48 589.53 909.48 589.53 917.35 582.25 917.35 582.25 909.48 582.25 909.48"/><polygon class="cls-1" points="589.33 881.19 601.15 876.48 601.15 906.96 589.33 906.96 589.33 881.19 589.33 881.19"/><polygon class="cls-1" points="596.37 875.02 608.19 870.33 608.19 900.81 596.37 900.81 596.37 875.02 596.37 875.02"/><polygon class="cls-1" points="588.6 889.87 591.13 889.87 591.13 896.65 587.34 896.65 588.6 889.87 588.6 889.87"/><polygon class="cls-1" points="588.16 895.91 592.12 895.91 592.12 912.39 588.16 912.39 588.16 895.91 588.16 895.91"/><polygon class="cls-1" points="743.45 978.82 679.99 978.82 679.99 1051.5 743.45 1051.5 743.45 978.82 743.45 978.82"/><polygon class="cls-1" points="748.71 1048.46 738.03 1048.46 738.03 1051.5 748.71 1051.5 748.71 1048.46 748.71 1048.46"/><polygon class="cls-1" points="742.98 974.9 700.88 974.9 700.88 983.09 742.98 983.09 742.98 974.9 742.98 974.9"/><polygon class="cls-1" points="703.64 967.16 713.88 973.8 713.88 977.06 703.64 977.06 703.64 967.16 703.64 967.16"/><polygon class="cls-1" points="744.58 977.88 741.89 977.88 741.89 980.38 744.58 978.97 744.58 977.88 744.58 977.88"/><polygon class="cls-1" points="744.34 988.32 742.17 988.32 742.17 990.72 744.34 989.05 744.34 988.32 744.34 988.32"/><polygon class="cls-1" points="744.34 1036.08 742.17 1036.08 742.17 1038.46 744.34 1036.83 744.34 1036.08 744.34 1036.08"/><polygon class="cls-1" points="705.17 952.64 682.52 944.02 682.52 984.31 705.17 984.31 705.17 952.64 705.17 952.64"/><polygon class="cls-1" points="693.49 946.63 685.99 946.63 685.99 949.65 693.49 949.65 693.49 946.63 693.49 946.63"/><polygon class="cls-1" points="708.04 952.12 701.9 952.12 701.9 952.97 708.04 952.97 708.04 952.12 708.04 952.12"/><polygon class="cls-1" points="707.27 952.59 703.76 952.59 703.76 957.97 707.27 955.13 707.27 952.59 707.27 952.59"/><polygon class="cls-1" points="683.41 924.47 638.83 924.47 638.83 952.43 683.41 952.43 683.41 924.47 683.41 924.47"/><polygon class="cls-1" points="684.08 926.26 682.24 926.26 682.24 929.82 684.08 927.66 684.08 926.26 684.08 926.26"/><polygon class="cls-1" points="684.61 923.88 670.46 923.88 670.46 926.71 684.61 926.71 684.61 923.88 684.61 923.88"/><polygon class="cls-1" points="672.39 918.85 657.57 918.85 657.57 928.11 672.39 928.11 672.39 918.85 672.39 918.85"/><polygon class="cls-1" points="658.17 914.24 639.44 914.24 639.44 928.86 658.17 928.86 658.17 914.24 658.17 914.24"/><polygon class="cls-1" points="644.59 908.87 635.44 903.19 635.44 910.66 644.59 910.66 644.59 908.87 644.59 908.87"/><polygon class="cls-1" points="644.16 910.18 641.31 910.18 641.31 911.66 644.16 911.66 644.16 910.18 644.16 910.18"/><polygon class="cls-1" points="641.9 909.48 634.62 909.48 634.62 917.35 641.9 917.35 641.9 909.48 641.9 909.48"/><polygon class="cls-1" points="634.82 881.19 622.99 876.48 622.99 906.96 634.82 906.96 634.82 881.19 634.82 881.19"/><polygon class="cls-1" points="627.78 875.02 615.95 870.33 615.95 900.81 627.78 900.81 627.78 875.02 627.78 875.02"/><polygon class="cls-1" points="635.55 889.87 633.02 889.87 633.02 896.65 636.81 896.65 635.55 889.87 635.55 889.87"/><polygon class="cls-1" points="635.99 895.91 632.02 895.91 632.02 912.39 635.99 912.39 635.99 895.91 635.99 895.91"/><polygon class="cls-1" points="538.86 949.53 685.29 949.53 685.29 1051.5 538.86 1051.5 538.86 949.53 538.86 949.53"/><polygon class="cls-1" points="583.93 906.11 640.22 906.11 640.22 973.01 583.93 973.01 583.93 906.11 583.93 906.11"/><path class="cls-1" d="M597.69,855.43h28.77v56.32H597.69V855.43Zm14.39,1.71h0a4.31,4.31,0,0,1,4.29,4.06h-.89v1.24h.9v6.7h-8.61v-6.7h.9V861.2h-.89a4.31,4.31,0,0,1,4.3-4.06Zm-9.37,0h0c1.53,0,2.8,1.81,2.88,4.06H605v1.24h.59v6.7h-5.76v-6.7h.59V861.2h-.59c.08-2.25,1.35-4.06,2.88-4.06Zm18.73,0h0c1.53,0,2.79,1.81,2.88,4.06h-.6v1.24h.6v6.7h-5.77v-6.7h.6V861.2h-.59c.07-2.25,1.35-4.06,2.88-4.06Z"/><polygon class="cls-1" points="628.31 855.36 595.84 855.36 595.84 854.38 628.31 854.38 628.31 855.36 628.31 855.36"/><polygon class="cls-1" points="612.51 832.76 611.63 832.76 610.57 832.76 597.11 855.13 611.63 855.13 612.51 855.13 627.03 855.13 613.58 832.76 612.51 832.76 612.51 832.76"/><polygon class="cls-1" points="596.88 854.82 627.27 854.82 627.27 856.57 596.88 856.57 596.88 854.82 596.88 854.82"/><path class="cls-1" d="M610.34,829.14h3.39a.34.34,0,0,1,.34.34v4.4a.34.34,0,0,1-.34.34h-3.39a.34.34,0,0,1-.34-.34v-4.4a.33.33,0,0,1,.34-.34Z"/><path class="cls-1" d="M609.44,832.06h5.22a.16.16,0,0,1,.15.15v.34a.14.14,0,0,1-.15.13h-5.22a.13.13,0,0,1-.14-.13v-.34a.15.15,0,0,1,.14-.15Z"/><path class="cls-1" d="M611.7,811.55h.74a.44.44,0,0,1,.44.43v17.93a.44.44,0,0,1-.44.43h-.74a.43.43,0,0,1-.43-.43V812a.43.43,0,0,1,.43-.43Z"/><path class="cls-1" d="M607.08,817.78V817a.43.43,0,0,1,.43-.43h9.1a.44.44,0,0,1,.46.43v.75a.45.45,0,0,1-.46.43h-9.1a.44.44,0,0,1-.43-.43Z"/><polygon class="cls-1" points="814.72 647.6 872.32 647.6 872.32 692.63 814.72 692.63 814.72 647.6 814.72 647.6"/><polygon class="cls-1" points="775.25 690.25 819.33 653.62 848.19 692.94 775.25 692.94 775.25 690.25 775.25 690.25"/><polygon class="cls-1" points="805.6 659.07 815.03 659.07 815.03 666.99 805.6 666.99 805.6 659.07 805.6 659.07"/><polygon class="cls-1" points="806.26 657.73 819.82 657.73 819.82 661.2 806.26 661.2 806.26 657.73 806.26 657.73"/><polygon class="cls-1" points="809.52 653.41 817.63 653.41 817.63 658.74 807.26 658.74 809.52 653.41 809.52 653.41"/><polygon class="cls-1" points="810.38 652.14 813.04 652.14 813.04 654.21 810.38 654.21 810.38 652.14 810.38 652.14"/><polygon class="cls-1" points="815.05 621.96 816.45 621.96 816.45 636.56 819.85 648.37 815.05 648.37 815.05 621.96 815.05 621.96"/><polygon class="cls-1" points="911.79 690.25 867.71 653.62 838.85 692.94 911.79 692.94 911.79 690.25 911.79 690.25"/><polygon class="cls-1" points="881.44 659.07 872.01 659.07 872.01 666.99 881.44 666.99 881.44 659.07 881.44 659.07"/><polygon class="cls-1" points="880.78 657.73 867.22 657.73 867.22 661.2 880.78 661.2 880.78 657.73 880.78 657.73"/><polygon class="cls-1" points="877.52 653.41 869.42 653.41 869.42 658.74 879.78 658.74 877.52 653.41 877.52 653.41"/><polygon class="cls-1" points="876.66 652.14 874 652.14 874 654.21 876.66 654.21 876.66 652.14 876.66 652.14"/><polygon class="cls-1" points="871.99 621.96 870.59 621.96 870.59 636.56 867.19 648.37 871.99 648.37 871.99 621.96 871.99 621.96"/><polygon class="cls-1" points="844.51 649.36 842.53 649.36 842.53 521.9 844.51 521.9 844.51 649.36 844.51 649.36"/><polygon class="cls-1" points="838.57 581.67 848.47 581.67 848.47 583.78 838.57 583.78 838.57 581.67 838.57 581.67"/><polygon class="cls-1" points="838.57 595.8 848.47 595.8 848.47 597.91 838.57 597.91 838.57 595.8 838.57 595.8"/><polygon class="cls-1" points="838.57 608.87 848.47 608.87 848.47 610.98 838.57 610.98 838.57 608.87 838.57 608.87"/><polygon class="cls-1" points="838.57 629.21 848.47 629.21 848.47 631.32 838.57 631.32 838.57 629.21 838.57 629.21"/><polygon class="cls-1" points="834.08 630.66 852.96 630.66 852.96 632.77 834.08 632.77 834.08 630.66 834.08 630.66"/><polygon class="cls-1" points="846.51 515.41 847.44 515.41 847.44 528.88 846.51 528.88 846.51 515.41 846.51 515.41"/><polygon class="cls-1" points="843.51 525.05 846.82 525.05 846.82 527.12 843.51 527.12 843.51 525.05 843.51 525.05"/><polygon class="cls-1" points="843.72 528.26 846.82 528.26 846.82 530.23 843.72 530.23 843.72 528.26 843.72 528.26"/><path class="cls-1" d="M841.24,531.37h4.55a.52.52,0,0,1,.52.52V534a.53.53,0,0,1-.52.52h-4.55a.52.52,0,0,1-.52-.52v-2.07a.52.52,0,0,1,.52-.52Z"/><polygon class="cls-1" points="845.27 530.12 846.1 530.12 846.1 531.78 845.27 531.78 845.27 530.12 845.27 530.12"/><path class="cls-1" d="M839.58,532.82H841a.31.31,0,0,1,.31.31v6.11a.31.31,0,0,1-.31.31h-1.45a.31.31,0,0,1-.31-.31v-6.11a.31.31,0,0,1,.31-.31Z"/><polygon class="cls-1" points="840.51 537.48 843 537.48 843 538.31 840.51 538.31 840.51 537.48 840.51 537.48"/><path class="cls-1" d="M842,545.77h1.45a.21.21,0,0,1,.21.2v3.53a.21.21,0,0,1-.21.2H842a.2.2,0,0,1-.2-.2V546a.2.2,0,0,1,.2-.2Z"/><path class="cls-1" d="M843.93,541.31h1.86a.41.41,0,0,1,.41.42v6.42a.41.41,0,0,1-.41.42h-1.86a.42.42,0,0,1-.42-.42v-6.42a.42.42,0,0,1,.42-.42Z"/><path class="cls-1" d="M845.69,542.66h.82a.52.52,0,0,1,.52.52v1.14a.52.52,0,0,1-.52.52h-.82a.52.52,0,0,1-.52-.52v-1.14a.52.52,0,0,1,.52-.52Z"/><polygon class="cls-1" points="830.47 611.86 831.36 611.86 831.36 648.54 830.47 648.54 830.47 611.86 830.47 611.86"/><polygon class="cls-1" points="856.87 625.51 857.76 625.51 857.76 649.04 856.87 649.04 856.87 625.51 856.87 625.51"/><path class="cls-1" d="M821.24,645h2.64c.31,0,.56.17.56.39v2.27c0,.22-.25.4-.56.4h-2.64c-.31,0-.56-.18-.56-.4v-2.27c0-.22.25-.39.56-.39Z"/><path class="cls-1" d="M827.23,645h2.64c.3,0,.56.17.56.39v2.27c0,.22-.26.4-.56.4h-2.64c-.31,0-.56-.18-.56-.4v-2.27c0-.22.25-.39.56-.39Z"/><path class="cls-1" d="M833.22,645h2.64c.3,0,.56.17.56.39v2.27c0,.22-.26.4-.56.4h-2.64c-.31,0-.56-.18-.56-.4v-2.27c0-.22.25-.39.56-.39Z"/><path class="cls-1" d="M839.21,645h2.63c.31,0,.57.17.57.39v2.27c0,.22-.26.4-.57.4h-2.63c-.31,0-.56-.18-.56-.4v-2.27c0-.22.25-.39.56-.39Z"/><path class="cls-1" d="M845.2,645h2.64c.3,0,.56.17.56.39v2.27c0,.22-.26.4-.56.4H845.2c-.31,0-.56-.18-.56-.4v-2.27c0-.22.25-.39.56-.39Z"/><path class="cls-1" d="M851.19,645h2.63c.31,0,.56.17.56.39v2.27c0,.22-.25.4-.56.4h-2.63c-.31,0-.56-.18-.56-.4v-2.27c0-.22.25-.39.56-.39Z"/><path class="cls-1" d="M857.18,645h2.63c.31,0,.56.17.56.39v2.27c0,.22-.25.4-.56.4h-2.63c-.31,0-.56-.18-.56-.4v-2.27c0-.22.25-.39.56-.39Z"/><path class="cls-1" d="M863.17,645h2.63c.31,0,.56.17.56.39v2.27c0,.22-.25.4-.56.4h-2.63c-.31,0-.56-.18-.56-.4v-2.27c0-.22.25-.39.56-.39Z"/><polygon class="cls-1" points="842.76 636.48 841.84 636.48 841.17 648.58 842.76 648.58 842.76 636.48 842.76 636.48"/><polygon class="cls-1" points="846.46 640.68 843.6 640.68 843.6 648.33 846.46 648.33 846.46 640.68 846.46 640.68"/><polygon class="cls-1" points="852.91 639.93 853.5 639.93 853.5 647.57 852.91 647.57 852.91 639.93 852.91 639.93"/><polygon class="cls-1" points="857.28 643.03 859.46 643.03 859.46 646.4 857.28 646.4 857.28 643.03 857.28 643.03"/><polygon class="cls-1" points="828 641.36 832.11 641.36 832.11 649.25 828 649.25 828 641.36 828 641.36"/><polygon class="cls-1" points="828.67 640.68 829.85 640.68 829.85 642.28 828.67 642.28 828.67 640.68 828.67 640.68"/><polygon class="cls-1" points="840.96 610.34 840.05 610.18 833.25 648.75 834.16 648.91 840.96 610.34 840.96 610.34"/><polygon class="cls-1" points="846.09 610.34 846.99 610.18 853.79 648.75 852.88 648.91 846.09 610.34 846.09 610.34"/><polygon class="cls-1" points="840.99 597.21 846.06 597.21 846.06 609.94 840.99 609.94 840.99 597.21 840.99 597.21"/><polygon class="cls-1" points="765.25 731.44 921.79 731.44 921.79 1048.37 765.25 1048.37 765.25 731.44 765.25 731.44"/><polygon class="cls-1" points="776.24 691.84 847.43 691.84 847.43 734.11 776.24 734.11 776.24 691.84 776.24 691.84"/><path class="cls-1" d="M775,701.07h2.22a.34.34,0,0,1,.34.34v2.44a.34.34,0,0,1-.34.34H775a.34.34,0,0,1-.33-.34v-2.44a.34.34,0,0,1,.33-.34Z"/><path class="cls-1" d="M766.79,717.09H770a.56.56,0,0,1,.55.56v1.78a.55.55,0,0,1-.55.55h-3.23a.56.56,0,0,1-.56-.55v-1.78a.56.56,0,0,1,.56-.56Z"/><path class="cls-1" d="M777.8,719.43H765.56a.55.55,0,0,0-.55.55v6.76a.56.56,0,0,0,.55.56H777.8a.56.56,0,0,0,.56-.56V720a.56.56,0,0,0-.56-.55Z"/><polygon class="cls-1" points="761.11 726.32 780.1 726.32 780.1 728.22 761.11 728.22 761.11 726.32 761.11 726.32"/><polygon class="cls-1" points="762.03 727.66 777.02 727.66 777.02 731.62 766.25 732.33 762.03 729.22 762.03 727.66 762.03 727.66"/><polygon class="cls-1" points="763.54 764.17 771 764.17 771 768.13 765.64 768.84 763.54 765.73 763.54 764.17 763.54 764.17"/><polygon class="cls-1" points="910.8 691.84 839.61 691.84 839.61 734.11 910.8 734.11 910.8 691.84 910.8 691.84"/><path class="cls-1" d="M912,701.07H909.8a.34.34,0,0,0-.33.34v2.44a.34.34,0,0,0,.33.34H912a.34.34,0,0,0,.33-.34v-2.44a.34.34,0,0,0-.33-.34Z"/><path class="cls-1" d="M920.26,717.09H917a.57.57,0,0,0-.56.56v1.78a.56.56,0,0,0,.56.55h3.23a.55.55,0,0,0,.55-.55v-1.78a.56.56,0,0,0-.55-.56Z"/><path class="cls-1" d="M909.24,719.43h12.24a.56.56,0,0,1,.56.55v6.76a.56.56,0,0,1-.56.56H909.24a.56.56,0,0,1-.55-.56V720a.55.55,0,0,1,.55-.55Z"/><polygon class="cls-1" points="925.93 726.32 906.95 726.32 906.95 728.22 925.93 728.22 925.93 726.32 925.93 726.32"/><polygon class="cls-1" points="925.02 727.66 910.02 727.66 910.02 731.62 920.79 732.33 925.02 729.22 925.02 727.66 925.02 727.66"/><polygon class="cls-1" points="923.51 764.17 916.05 764.17 916.05 768.13 921.4 768.84 923.51 765.73 923.51 764.17 923.51 764.17"/><polygon class="cls-1" points="30.31 1001.12 73.23 1001.12 73.23 1052.91 30.31 1052.91 30.31 1001.12 30.31 1001.12"/><polygon class="cls-1" points="214.59 1006.25 266.83 1006.25 266.83 1048.71 214.59 1048.71 214.59 1006.25 214.59 1006.25"/><polygon class="cls-1" points="257.97 1020.25 309.29 1020.25 309.29 1051.51 257.97 1051.51 257.97 1020.25 257.97 1020.25"/><polygon class="cls-1" points="916.6 1000.29 939.18 1000.29 939.18 1049.83 916.6 1049.83 916.6 1000.29 916.6 1000.29"/><polygon class="cls-1" points="947.2 984.26 986.54 984.26 986.54 1060.76 947.2 1060.76 947.2 984.26 947.2 984.26"/><polygon class="cls-1" points="754.85 995.91 728.63 995.91 728.63 1056.39 754.85 1056.39 754.85 995.91 754.85 995.91"/><polygon class="cls-1" points="1409.78 984.99 1451.07 984.99 1451.07 1054.53 1409.78 1054.53 1409.78 984.99 1409.78 984.99"/><polygon class="cls-1" points="1489.64 1010.52 1440.2 1010.52 1440.2 1049.64 1489.64 1049.64 1489.64 1010.52 1489.64 1010.52"/><polygon class="cls-1" points="1465.19 1002.37 1491.82 1002.37 1491.82 1028.99 1465.19 1028.99 1465.19 1002.37 1465.19 1002.37"/><polygon class="cls-1" points="1799.88 1005.09 1886.81 1005.09 1886.81 1057.25 1799.88 1057.25 1799.88 1005.09 1799.88 1005.09"/><polygon class="cls-1" points="1896.59 1029.54 1878.66 1029.54 1878.66 1060.51 1896.59 1060.51 1896.59 1029.54 1896.59 1029.54"/><polygon class="cls-1" points="1805.98 1002.49 1841.72 1002.49 1841.72 1015.68 1805.98 1015.68 1805.98 1002.49 1805.98 1002.49"/><polygon class="cls-1" points="1838.88 1000.49 1845.73 1000.49 1845.73 1008.84 1838.88 1008.84 1838.88 1000.49 1838.88 1000.49"/><polygon class="cls-1" points="1829.36 1001.49 1818 1001.49 1818 1005.33 1829.36 1005.33 1829.36 1001.49 1829.36 1001.49"/><polygon class="cls-1" points="1795.45 1016.02 1804.47 1010.84 1804.47 1057.44 1795.45 1057.44 1795.45 1016.02 1795.45 1016.02"/><polygon class="cls-1" points="1888.15 1003.83 1879.13 1003.83 1879.13 1035.73 1888.15 1035.73 1888.15 1003.83 1888.15 1003.83"/><polygon class="cls-1" points="-0.53 1040.97 1934 1040.97 1934 1080.27 -0.53 1080.27 -0.53 1040.97 -0.53 1040.97"/></g></svg>