<svg xmlns="http://www.w3.org/2000/svg" viewBox="0 0 1920 1080"><defs><style>.cls-1{fill:#c5c7c9;}.cls-1,.cls-2,.cls-3{fill-rule:evenodd;}.cls-2{fill:#bbbdbf;}.cls-3{fill:#dfe0e1;}</style></defs><g id="city4"><path class="cls-1" d="M17.39,1019.07S129.52,856.46,231.65,846.75,350.8,837,422.81,823.16s124.39-40.24,223.9-40.24S869.3,762.1,911.2,735.74,954.4,695.5,1012,699.66s103.44-33.3,159.75-30.52,77,17.08,128.08,18.46,50.15-18.24,99.9-34.89,136,30.24,187.08,60.76S1819.06,879.62,1842.63,899s51,141,51,141L13,1064.61l4.4-45.54Z"/><path class="cls-2" d="M863.49,778.66s51.17-36.36,97-55.22,70-10.77,106.39-18.85,39.05-25.59,70-24.24,110.43,14.81,144.1,16.16,79.46-9.43,103.7-16.16,49.83-17.51,97-5.39,92.93,40.4,92.93,40.4-138.72-33.66-198-13.46-91.58,28.28-132,20.2S1180,700.55,1135.53,714s-63.3,20.2-97,21.54-14.82-24.24-70,5.39-105,37.71-105,37.71Z"/><path class="cls-3" d="M286,874.35c-47.14-18.52,213.83-20.2,282.86-37s96-35.36,183.52-13.47S898.84,849.1,920.73,849.1s85.87-57.25,207.09-47.15,156.59,11.79,176.79,13.47,60.61-8.42,60.61-8.42-10.1,30.31-129.64,25.26-215.51-16.84-244.13,8.42-50.52,48.82-50.52,48.82-28.62-30.3-106.07-30.3-104.39-42.1-153.21-23.57-96,40.4-96,40.4S599.14,849.1,547,857.51s-213.83,35.36-261,16.84Z"/><path class="cls-2" d="M1282.66,762.24c-9.44-12.59,107,4.2,126.95,12.59s6.3-25.18,6.3-25.18,16.78,1.05,32.52,14.69,48.26,13.64,52.46,8.39S1504,754.9,1504,754.9s3.15-3.15,35.67,7.34,49.31,12.59,53.51,6.3-3.15-27.28-3.15-27.28,42,17.83,54.56,34.62,5.24,32.53-27.28,27.28-86-15.74-79.74-4.2,11.54,15.74,11.54,15.74-9.44,6.3-53.5-4.2-70.3-14.68-60.86-7.34,39.87,39.87,17.84,28.33-46.17-22-69.25-35.67-91.28-21-100.72-33.58Z"/><path class="cls-2" d="M1046.67,739.9s-12.84,4.28,58.48,18.54,112,33.52,112,33.52,5.7-8.55-20-21.39-19.26-22.82-5.71-19.26,21.4,5.71,21.4,5.71-20-5-12.13-10.7,11.41-11.41,15.69-11.41-20.68-3.57-17.83-7.85-9.27-7.84-22.82-5-30,7.13-33.52,4.28-12.84-10-22.82-1.43-17.84,15-28.53,15Z"/></g></svg>