<svg xmlns="http://www.w3.org/2000/svg" viewBox="0 0 1920 1080"><defs><style>.cls-1{fill:#e6e7e8;}.cls-1,.cls-2,.cls-3{fill-rule:evenodd;}.cls-2{fill:#f5f5f6;}.cls-3{fill:#d0d2d3;}</style></defs><g id="city3"><path class="cls-1" d="M59.59,886.92S194.75,659.67,255,668s89.09,61.72,149.32,67.28S537,723.38,598.57,724.77,809.06,831.2,809.06,831.2l493.43,206.54s-1282.3,1.12-1284.29-9.46c-2.62-13.88,41.39-141.36,41.39-141.36Z"/><path class="cls-2" d="M193.35,710.79c-1.64-2.19,33.38-40.49,60.74-37.21s37.75,13.14,46,20.25,35.56,23.53,38.3,24.62-23,1.09-47.06-10.39-35-18.61-38.84-11.5-9.31,31.74-17,19.7,1.64-25.17-23-8.2-33.92,19.14-33.92,19.14S195,713,193.35,710.79Z"/><path class="cls-2" d="M265.58,720.09s17-8.75,51.43,6.57,42.68,19.15,69.49,22.43,60.18,4.38,60.18,4.38S384.31,765,345.46,748.54s-38.3-25.71-53.07-26.26-26.81-2.19-26.81-2.19Z"/><path class="cls-3" d="M168.22,746.91s26.23-29.52,44.27-21.32,21.31,12.3,41,29.51,44.26,26.24,55.74,27.06,49.18,4.1,49.18,4.1-27.87,10.65-57.38,3.27-45.09-8.19-45.09-8.19S242,810,266.59,819.05s-19.67,13.11-37.71-22.14-28.69-48.36-42.63-47.54-18-2.46-18-2.46Z"/><path class="cls-2" d="M453.5,746.91s93.45-23,136.08-12.3S697,764.94,697,764.94s-38.53,10.66-77.06-5.74S584.66,743.63,565,746.91s18.85,18.85,18.85,18.85-13.11,12.3-50-.82-34.43-14.76-51.65-13.12-28.69-4.91-28.69-4.91Z"/></g></svg>