<svg xmlns="http://www.w3.org/2000/svg" viewBox="0 0 1920 1080"><defs><style>.cls-1{fill:#dfe0e1;}.cls-1,.cls-2,.cls-3{fill-rule:evenodd;}.cls-2{fill:#f5f5f6;}.cls-3{fill:#d0d2d3;}</style></defs><g id="city2"><path class="cls-1" d="M143,805.22c-2.62,0,135.76-104.46,207.77-133.6S470,642.48,536.72,650.81,713.48,680,771.1,703.54s108.67,25,158.43,25S1029,763.21,1029,763.21l273.45,274.53-690,9L13,1054.61S144.07,805.22,143,805.22Z"/><path class="cls-2" d="M369,669.75c0-.54,78.79-25.17,111.07-20.24s60.19,6.57,76.6,10.4,60.74,9.84,65.11,10.39,14.23,5.47-21.88,8.21-75-18.06-81-17,30.09,35,13.13,36.11-27.36-25.17-61.83-25.17-16.41-12-31.73-11.49-25.17,0-39.4,10.39-17,4.38-23,1.1S369,670.3,369,669.75Z"/><path class="cls-3" d="M422.57,734.76c-3.35,1.12,69.4-24.63,151.1-31.34s73.87-2.24,110.81,17.91,64.92,29.1,83.94,29.1-24.62,19-68.27-3.36-66-35.82-113-29.1-117.52,8.95-124.23,13.43-36.94,2.24-40.3,3.36Z"/><path class="cls-3" d="M333.81,684.6s16.4-16.39,34.43-7.38,50,15.58,50,15.58,2.46,5.74-21.32,1.64S374,683,360.05,683.78s-26.24.82-26.24.82Z"/></g></svg>